inDegrees=yes
name=ik_S44_A06_T02
DataType=double
version=3
OpenSimVersion=4.3-2021-08-27-4bc7ad9
endheader
time	pelvis_tilt	pelvis_list	pelvis_rotation	pelvis_tx	pelvis_ty	pelvis_tz	hip_flexion_r	hip_adduction_r	hip_rotation_r	knee_angle_r	knee_angle_r_beta	ankle_angle_r	subtalar_angle_r	mtp_angle_r	hip_flexion_l	hip_adduction_l	hip_rotation_l	knee_angle_l	knee_angle_l_beta	ankle_angle_l	subtalar_angle_l	mtp_angle_l	lumbar_extension	lumbar_bending	lumbar_rotation	arm_flex_r	arm_add_r	arm_rot_r	elbow_flex_r	pro_sup_r	wrist_flex_r	wrist_dev_r	arm_flex_l	arm_add_l	arm_rot_l	elbow_flex_l	pro_sup_l	wrist_flex_l	wrist_dev_l
18.83999999999969	-7.795837871942187	-0.7953114161884299	26.87560682223965	0	0.9399999999999999	0	42.8784781168006	-10.05899422895877	-10.0682047318751	56.03057713055101	0.9779180527207518	0	0	0	42.8784781168006	-10.05899422895877	-10.0682047318751	56.03057713055101	0.9779180527207518	0	0	0	-4.140141646900776	2.28908842796235	-0.6172993479664624	37.68925213490881	6.224617545408814	19.08806038321939	29.06140371461486	129.8724911891804	0	0	77.74580905752725	12.87239732724872	7.671062430427988	14.08164807940669	107.9050297305734	0	0
18.85999999999969	-7.855372048365546	-0.7760372610094287	26.57505603692512	0	0.9399999999999999	0	42.87923204309666	-10.0589209315532	-10.06815040635451	56.03033249927137	0.9779137830994687	0	0	0	42.87923204309666	-10.0589209315532	-10.06815040635451	56.03033249927137	0.9779137830994687	0	0	0	-4.186352793435593	2.33821840460367	-0.6814818629254313	37.71345890796086	6.273817726244186	19.43945359522896	29.09061804621648	129.9308757737371	0	0	78.07466469513518	13.43667174932534	7.755130813794349	13.47096789326327	107.4942027651527	0	0
18.87999999999969	-7.905182137858613	-0.762309981748435	26.2631806650137	0	0.9399999999999999	0	42.87999910660024	-10.05884644483847	-10.06809516969967	56.03008349703712	0.9779094371906362	0	0	0	42.87999910660024	-10.05884644483847	-10.06809516969967	56.03008349703712	0.9779094371906362	0	0	0	-4.226474122974093	2.377369647333249	-0.7397365978182061	37.74001151189125	6.424885378942053	19.79955196071134	29.02924000053959	129.9651407524893	0	0	78.39550512291586	14.03398352798421	7.80803646670221	12.74317373157557	106.8489141622388	0	0
18.89999999999969	-7.976638419575814	-0.7559412685347883	25.93866702808993	0	0.9399999999999999	0	42.88065532301652	-10.05878325452966	-10.06804817014429	56.0298689333997	0.9779056923487082	0	0	0	42.88065532301652	-10.05878325452966	-10.06804817014429	56.0298689333997	0.9779056923487082	0	0	0	-4.289685681062264	2.424583070942218	-0.8635358450775122	37.82045711798902	6.568607302487067	20.32814165971389	28.93354951331188	129.9639177674959	0	0	78.49150688795564	13.78179796203395	7.636869865438141	12.54256933747934	106.041259024534	0	0
18.91999999999969	-8.030647486674191	-0.7252711665894723	25.330327579813	0	0.9399999999999999	0	42.88133160874407	-10.05871781197436	-10.06799957007228	56.02964895962523	0.9779018530820758	0	0	0	42.88133160874407	-10.05871781197436	-10.06799957007228	56.02964895962523	0.9779018530820758	0	0	0	-4.329104245846737	2.495085457311707	-1.1058221389182	37.87101354978727	6.94694702906539	21.37612635114855	28.77100438848357	129.7655582474058	0	0	78.83552419412032	13.90189919297291	7.509330731879019	11.88261664717916	105.5092652485339	0	0
18.93999999999969	-8.028532989919666	-0.7330877706473856	25.27193721298368	0	0.9399999999999999	0	42.88184627396674	-10.05866887696073	-10.06796300930124	56.02947883565599	0.977898883858676	0	0	0	42.88184627396674	-10.05866887696073	-10.06796300930124	56.02947883565599	0.977898883858676	0	0	0	-4.332484098603491	2.498804472266756	-1.249911120567287	37.9673802127169	7.09244413233114	21.97642433679404	28.53334288838979	129.495927837557	0	0	78.84419310808238	13.75538251576006	7.485880989853319	11.7680722748728	105.426430703466	0	0
18.95999999999968	-8.074490476842778	-0.7505864398168776	24.64723396635558	0	0.9399999999999999	0	42.88273244280303	-10.0585830876451	-10.06789929182482	56.02919107905318	0.9778938615585124	0	0	0	42.88273244280303	-10.0585830876451	-10.06789929182482	56.02919107905318	0.9778938615585124	0	0	0	-4.383914591947957	2.511358647208851	-1.364348598316599	38.26197686732035	7.687818678377056	22.80770541971368	28.00649883081162	129.2868044004245	0	0	79.57226930450094	14.77546911054944	7.998637257405885	10.52419539209079	104.681120646827	0	0
18.97999999999968	-8.105757045377439	-0.7402896029628387	24.39360550562738	0	0.9399999999999999	0	42.88340131748278	-10.05851838635905	-10.06785121690493	56.02897387095463	0.9778900705620308	0	0	0	42.88340131748278	-10.05851838635905	-10.06785121690493	56.02897387095463	0.9778900705620308	0	0	0	-4.409236439404013	2.535964364774442	-1.391685909474589	38.43648450910185	7.92777193327314	22.74624487079721	27.61313815014939	129.7500299404944	0	0	79.84224120970336	15.37285760062702	8.221832871208127	10.08205979907814	104.0351759071633	0	0
18.99999999999968	-8.162693347163772	-0.7249253686479749	23.96229103617848	0	0.9399999999999999	0	42.88431393699558	-10.0584301205841	-10.06778561857026	56.02867771196131	0.977884901612488	0	0	0	42.88431393699558	-10.0584301205841	-10.06778561857026	56.02867771196131	0.977884901612488	0	0	0	-4.457864594434596	2.587024959159172	-1.556587842114473	38.55413374638258	8.373669606504258	22.96628638168507	27.45230577002528	130.0777822565978	0	0	80.07760913891759	15.56648992257965	8.117936311198118	9.854417030611112	103.2294268815518	0	0
19.01999999999968	-8.215022406868831	-0.6886841656623773	23.53565704384951	0	0.9399999999999999	0	42.88502980290227	-10.05836100534841	-10.06773421482201	56.02844518417795	0.9778808432370659	0	0	0	42.88502980290227	-10.05836100534841	-10.06773421482201	56.02844518417795	0.9778808432370659	0	0	0	-4.49378242690251	2.651436008449002	-1.678852339993973	38.6743742046107	8.723965580818685	23.20888961633162	27.11381216544658	130.4788027064426	0	0	80.32437245068897	16.15361991364282	7.776231151214286	9.517598399562752	102.6755511390621	0	0
19.03999999999968	-8.258719571045967	-0.6723305812205335	23.16437676864856	0	0.9399999999999999	0	42.88585945211479	-10.05828096607357	-10.0676746619327	56.02817570287215	0.9778761399010071	0	0	0	42.88585945211479	-10.05828096607357	-10.0676746619327	56.02817570287215	0.9778761399010071	0	0	0	-4.529803349461724	2.695561294841143	-1.82298927402019	38.8301485545355	9.124793761641282	23.49590237735019	26.87974178601634	130.6704748524263	0	0	80.5344083109002	16.2614064360835	7.7357524003347	9.268126158535086	101.9908351907129	0	0
19.05999999999968	-8.288068002667295	-0.663468363003046	22.81443274093466	0	0.9399999999999999	0	42.88653391365681	-10.05821602541424	-10.06762630418489	56.02795637824328	0.9778723119641027	0	0	0	42.88653391365681	-10.05821602541424	-10.06762630418489	56.02795637824328	0.9778723119641027	0	0	0	-4.555471794060167	2.726525845649421	-1.959606860514503	38.96494341153098	9.472855705718525	23.8352051140466	26.57418789374383	130.8375128327709	0	0	80.72184556611199	16.34158739513087	7.879243970543741	9.019633211954732	101.3385325693884	0	0
19.07999999999968	-8.306147655741553	-0.6634449253864975	22.63807809246833	0	0.9399999999999999	0	42.88728813349412	-10.05814341423838	-10.06757222428345	56.02771126925111	0.977868034005163	0	0	0	42.88728813349412	-10.05814341423838	-10.06757222428345	56.02771126925111	0.977868034005163	0	0	0	-4.573308570384317	2.735894648134114	-1.988333843452364	39.09613329638121	9.67876790263419	23.90455526164559	26.33792418731037	130.9647762532655	0	0	80.849399204338	16.65469557881899	8.035417439498646	8.748703594980068	100.7945447232902	0	0
19.09999999999968	-8.350550972426063	-0.6461478070448536	22.33395479566923	0	0.9399999999999999	0	42.88785498611932	-10.05808895149189	-10.0675316290278	56.02752679749158	0.9778648143655824	0	0	0	42.88785498611932	-10.05808895149189	-10.0675316290278	56.02752679749158	0.9778648143655824	0	0	0	-4.609832043428452	2.780647624413248	-2.128122673904704	39.19018036244159	9.960665303916889	24.18501209387801	26.22852247511911	131.1088685069817	0	0	81.02098627097892	16.60007738975317	8.047078090831132	8.553896648419595	100.4995289563713	0	0
19.11999999999968	-8.394030344854494	-0.6283283893773985	22.06656870364888	0	0.9399999999999999	0	42.88861783792572	-10.05801563411311	-10.06747697826079	56.02727878530566	0.977860485736353	0	0	0	42.88861783792572	-10.05801563411311	-10.06747697826079	56.02727878530566	0.977860485736353	0	0	0	-4.645249747150501	2.822015075821585	-2.228302383128945	39.24632357847697	10.16839575610245	24.44993220168312	26.10318853325823	131.3214768793107	0	0	81.19005698164655	16.6585128957205	8.206078205855306	8.289736919248478	99.91305253600457	0	0
19.13999999999968	-8.425876167816883	-0.6089901268506941	21.83598499188962	0	0.9399999999999999	0	42.88929328096174	-10.05795081113182	-10.06742862871468	56.0270590458649	0.9778566505596152	0	0	0	42.88929328096174	-10.05795081113182	-10.06742862871468	56.0270590458649	0.9778566505596152	0	0	0	-4.669023363486994	2.858400682832463	-2.305542466438567	39.29119240169393	10.33002016426842	24.70929053187961	26.03243437059504	131.4920729825197	0	0	81.29989805058084	16.80113647828813	8.347653784240574	7.995570916060145	99.42781327673809	0	0
19.15999999999968	-8.471995845066388	-0.5936453294763203	21.63706997467867	0	0.9399999999999999	0	42.89004339137772	-10.05787889544426	-10.06737496248948	56.02681495914534	0.9778523904426984	0	0	0	42.89004339137772	-10.05787889544426	-10.06737496248948	56.02681495914534	0.9778523904426984	0	0	0	-4.70759377435867	2.894341069083109	-2.359169456132211	39.34388510970903	10.43032640261012	25.01441351329319	25.97164020736752	131.4806576891554	0	0	81.45366394130254	17.00076592726561	8.440006787650969	7.550983811577163	99.03347366821248	0	0
19.17999999999968	-8.529869003311982	-0.5732522511132593	21.45268778757284	0	0.9399999999999999	0	42.8907219334105	-10.05781400667211	-10.06732649245767	56.02659375999885	0.9778485297892896	0	0	0	42.8907219334105	-10.05781400667211	-10.06732649245767	56.02659375999885	0.9778485297892896	0	0	0	-4.755302855467686	2.939422743799856	-2.415724160482065	39.41903610780463	10.54587385091949	25.37870651108478	25.89482378628446	131.3523293008029	0	0	81.57731850044014	17.0816377278023	8.487568069347581	7.33826501842277	98.7719929212667	0	0
19.19999999999968	-8.581581074970023	-0.5415455690234314	21.28529877355795	0	0.9399999999999999	0	42.89146468293515	-10.05774287445867	-10.06727337703274	56.02635213846694	0.9778443126980141	0	0	0	42.89146468293515	-10.05774287445867	-10.06727337703274	56.02635213846694	0.9778443126980141	0	0	0	-4.793345640200505	2.992483926089964	-2.468911690246234	39.42716566400229	10.59595503724474	25.6366568033211	25.86922276031686	131.3179734653058	0	0	81.60642557143841	17.21199279247704	8.522578122592884	7.207012571449048	98.38332237051789	0	0
19.21999999999968	-8.692995747566895	-0.5127944052823508	20.9648312737652	0	0.9399999999999999	0	42.89207051867097	-10.05768512556374	-10.06723018126125	56.02615430392127	0.9778408598338179	0	0	0	42.89207051867097	-10.05768512556374	-10.06723018126125	56.02615430392127	0.9778408598338179	0	0	0	-4.888718293803975	3.070118881626315	-2.592473502857656	39.58346647124204	10.81131857249736	26.06789035486052	25.7938145666083	131.3832360129393	0	0	81.77336842541382	17.09556741913946	8.269767960641811	7.153984040474787	97.69632463346451	0	0
